<svg width="57" height="57" viewBox="0 0 57 57" fill="none" xmlns="http://www.w3.org/2000/svg">
<path d="M49.875 38V19C49.8741 18.167 49.6543 17.3489 49.2374 16.6278C48.8205 15.9066 48.2214 15.3077 47.5 14.8913L30.875 5.39126C30.1529 4.97436 29.3338 4.75488 28.5 4.75488C27.6662 4.75488 26.8471 4.97436 26.125 5.39126L9.5 14.8913C8.77862 15.3077 8.17945 15.9066 7.7626 16.6278C7.34574 17.3489 7.12585 18.167 7.125 19V38C7.12585 38.833 7.34574 39.6511 7.7626 40.3723C8.17945 41.0934 8.77862 41.6923 9.5 42.1088L26.125 51.6088C26.8471 52.0257 27.6662 52.2451 28.5 52.2451C29.3338 52.2451 30.1529 52.0257 30.875 51.6088L47.5 42.1088C48.2214 41.6923 48.8205 41.0934 49.2374 40.3723C49.6543 39.6511 49.8741 38.833 49.875 38Z" stroke="white" stroke-width="4.75" stroke-linecap="round" stroke-linejoin="round" stroke-dasharray="8.31 8.31"/>
<path d="M7.76624 16.53L28.5 28.5237L49.2337 16.53" stroke="white" stroke-width="4.75" stroke-linecap="round" stroke-linejoin="round"/>
<path d="M28.5 52.44V28.5" stroke="white" stroke-width="4.75" stroke-linecap="round" stroke-linejoin="round"/>
</svg>